<?xml version="1.0" encoding="utf-8"?>
<!-- Generator: Adobe Illustrator 21.0.0, SVG Export Plug-In . SVG Version: 6.00 Build 0)  -->
<svg version="1.1" id="Capa_1" xmlns="http://www.w3.org/2000/svg" xmlns:xlink="http://www.w3.org/1999/xlink" x="0px" y="0px"
	 viewBox="0 0 500 210" style="enable-background:new 0 0 500 210;" xml:space="preserve">
<style type="text/css">
	.st0{fill:#51CE00;}
	.st1{fill:#FFFFFF;}
	.st2{font-family:'DS-Digital-Italic';}
	.st3{font-size:62.3384px;}
</style>
<g>
	<g>
		<path class="st0" d="M396.2,7.5c-53.2-0.1-96.4,42.9-96.4,96c-0.1,52.9,42.8,96.1,95.5,96.2c53.3,0.2,96.6-42.7,96.7-95.6
			C492.1,50.8,449.2,7.6,396.2,7.5z M306.6,91.1c1.4-7.8,3.2-15.6,6.6-22.8c1-2.2,2.7-3.6,5.3-2.7c2.9,1.1,3.5,3.4,2.4,6
			c-2.9,6.7-4.6,13.8-5.9,21c-0.5,2.8-2,4.7-4.9,4.1C307.3,96.2,306.2,93.9,306.6,91.1z M319.6,143.5c-2.4,1-4.3,0-5.5-2.3
			c-3.7-7.4-5.8-15.2-7.3-23.7c0-2,0.7-4,3.3-4.6c2.6-0.6,4.5,0.7,5,3.2c1.5,7.6,3.6,15,6.8,22C323,140.5,322,142.5,319.6,143.5z
			 M327.5,45.4c5-6,10.7-11.1,17.2-15.3c3.6-2.3,7.2-0.7,7.2,3c0,2-1.4,3.1-2.8,4.2c-5.6,4-10.7,8.5-15.2,13.7
			c-2,2.3-4.4,3.2-6.8,0.9C324.8,49.7,325.7,47.4,327.5,45.4z M352.9,177.9c-1.9,2.9-4.5,1.9-6.9,0.3c-6.3-4.2-11.9-9-17-14.6
			c-1.4-1.6-2.1-3.4-1.3-5.5c0.7-1.6,2-2.2,2.8-2.4c2.6-0.1,3.6,1.1,4.7,2.2c4.7,5,9.9,9.4,15.6,13.2
			C353.3,172.9,354.8,175.1,352.9,177.9z M365.4,23.1c-0.5-2.3,0.9-4,2.9-4.6c8-2.7,16.3-4,24.7-4.2c2.6-0.1,4.2,1.4,4.3,4
			c0.1,2.4-1.2,3.8-3.4,4.1c-7.9,0.8-15.8,1.6-22.7,3.9C367.8,26.6,366,25.6,365.4,23.1z M396.9,193c-1.3,0-2.7,0-5.6,0
			c-5.3-0.1-12-1.4-18.7-3c-3-0.7-5.8-2.1-4.6-5.9c1-3.2,3.6-3.2,6.5-2.4c7.3,1.9,14.8,2.8,22.4,2.9c3,0,7-0.9,7.2,3.7
			C404.2,193.2,400.3,193,396.9,193z M413.5,19.7c0.7-2.1,2.5-3.2,4.7-2.7c8.4,2.1,16.4,5.3,23.6,10.1c1.1,0.7,1.9,1.9,1.8,3.6
			c-0.7,3.4-3.3,4.8-6.3,3.2c-6.9-3.6-14-6.6-21.3-8.9C413.5,24.2,412.7,22.2,413.5,19.7z M447.9,176c-7,5.6-14.9,9.2-22.6,12
			c-2.9,0.1-4.7-0.4-5.4-2.8c-0.6-2.2,0.2-4.2,2.3-5c7.4-2.9,14.4-6.6,21.1-10.9c1.8-1.1,4-0.7,5.3,1.3
			C449.8,172.5,449.8,174.5,447.9,176z M455.4,42.8c1.1-1.1,2.6-1.5,4.3-1c3.7,1.3,16.6,19.7,16.4,23.6c0,1.8-0.8,3-2.4,3.6
			c-2.1,0.8-4.1,0.3-5.2-1.7c-3.8-6.8-8.1-13.2-13.3-19.1C453.7,46.7,453.8,44.4,455.4,42.8z M464.6,159.9c-1.5,1.4-3.4,0.7-4.8-0.7
			c-1.7-1.6-1.7-3.6-0.4-5.4c4.6-6.2,8.5-12.8,11.6-20c0.8-1.9,2.8-2.8,5-2.2c2,0.6,2.7,2.1,2.8,4.9
			C475.7,144.7,471.6,153.2,464.6,159.9z M484.8,112.5c-0.4,2.4-1.9,4.1-4.6,3.7c-2.7-0.3-4.1-2.3-3.7-4.7
			c1.1-7.6-0.1-15.1-0.8-22.6c-0.2-2.6,1-4.5,3.5-4.8c2.5-0.3,4.3,1.3,4.6,3.8c0.8,5.1,1.9,10.1,1.6,15.3
			C485.3,106.3,485.3,109.4,484.8,112.5z"/>
		<path class="st0" d="M248.8,104.3c0,5.5,0.1,11.1-0.1,16.6c-0.1,3.1-1.3,5.8-5,5.8c-3.6,0-4.9-2.6-5.1-5.8c-0.1-1.8-0.3-3.6,0-5.3
			c1.1-6.6-1.6-8.2-7.9-7.9c-10.9,0.6-10.9,0.1-11.2,11.2c-0.1,3.7-0.1,7.8-5.1,7.7c-4.9,0-5.1-4-5.1-7.7c0-10,0-20,0-30
			c0-3.8,0.5-7.7,5.3-7.6c4.7,0.1,5,4.2,4.9,7.9c0,1.6,0.2,3.1,0,4.7c-0.6,4.2,1.3,5.7,5.3,5.1c0.9-0.1,1.8,0,2.7,0
			c10.8,0,10.8,0,11.2-10.4c0.2-3.6,0.7-7.2,5-7.3c4.8-0.1,5.3,3.8,5.3,7.6C248.8,94,248.8,99.2,248.8,104.3z"/>
		<path class="st0" d="M256,104c0-5.1,0-10.2,0-15.3c0.1-4.2,2.1-6.7,6.5-6.6c4.4,0,8.9,0,13.3,0c2.9,0,5.6,0.7,5.6,4.2
			c0.1,3.9-2.8,4.6-5.9,4.6c-1.8,0-3.6,0.1-5.3,0c-3.3-0.3-4.1,1.3-4.1,4.4c0,3.1,0.9,4.3,4.2,4.3c3.8,0.1,10.1-2.1,10.2,4.1
			c0.1,6.8-6.5,4.3-10.4,4.5c-3.5,0.2-3.9,1.8-3.9,4.7c0,2.7,0.1,4.9,3.8,4.5c2.4-0.2,4.9-0.1,7.3,0.1c2.4,0.2,4.2,1.6,4.3,4.3
			c0.1,2.6-1.4,4.4-3.9,4.5c-5.5,0.2-11.1,0.4-16.7,0c-3.8-0.3-4.9-3.3-4.9-6.8C256,114.2,256,109.1,256,104z"/>
		<path class="st0" d="M183.1,107.9c0-3.1-0.2-6.2,0-9.3c0.4-5,0-8.8-6.7-7.9c-2.6,0.3-4.8-1.4-4.7-4.4c0.1-2.6,2-4,4.4-4.1
			c7.8-0.1,15.5-0.1,23.3,0c2.5,0,4.2,1.4,4.4,4c0.2,3.1-1.8,4.8-4.5,4.5c-6.3-0.8-6.6,2.6-6.4,7.4c0.3,7.3,0.1,14.6,0.1,21.9
			c0,3.3-0.7,6.6-4.7,6.7c-4.5,0.1-5.2-3.2-5.2-6.9C183.1,115.8,183.1,111.8,183.1,107.9z"/>
		<g>
			<path class="st0" d="M102.4,85c-2.7-6.3-10.8-5.8-13.5,0.7C84.3,97,80.5,108.5,76.3,120c-1.1,3.1,0,5.3,2.9,6.4
				c3,1.2,5.6-0.1,6.3-3.1c1-4.2,3.2-6.1,7.4-5.2c4.7,0.9,11.5-3.3,13.2,5.4c0.6,2.7,3,3.7,5.8,3.1c2.5-0.6,3.8-2.1,3.8-4.7
				c0-0.4,0-0.9-0.2-1.3C111.3,108.7,107.4,96.6,102.4,85z M93.2,99.9c0.7-2.1,1.5-4,2.8-7.4c1.9,6.1,3.4,11,5,15.9
				C90.1,109.8,90.1,109.7,93.2,99.9z"/>
			<path class="st0" d="M28.7,82.2c-4.2-0.4-8.4-0.1-12.6-0.2c-4.4-0.1-6.5,2.2-6.5,6.6c0,5.3,0,10.6,0,16c0,5.1,0,10.2,0,15.3
				c0,3.3,0.4,6.6,4.5,6.8c4.5,0.2,5.8-3.1,5.3-6.7c-1-7,1.7-8.9,8.5-8.5c8.1,0.4,13.6-5.6,14-13.8C42.3,89.4,36.9,82.9,28.7,82.2z
				 M31.1,97.1c-0.2,4.3-3.6,5.2-7.5,5.5c-5.3,0.4-4-3.1-4.1-6c0-3-1-6.4,4.2-5.9C27.9,91.1,31.3,92.3,31.1,97.1z"/>
			<path class="st0" d="M147.4,82.6c-5.6-4.4-7.6,2-10,5.1c-5.9,7.7-5.8,7.8-11.3,0c-1.9-2.6-3.1-6.1-7.1-6.5
				c-1.9,0.2-3.4,1.1-4.3,2.7c-1.3,2.5-0.3,4.8,1.3,6.7c6.5,8.2,12.9,16.3,10.7,28c-0.7,3.6-0.1,7.8,4.8,8c5.5,0.2,5.7-4.4,5.2-8.1
				c-1.3-9.8,2-17.6,8.5-24.7C147.8,90.8,152.6,86.7,147.4,82.6z"/>
			<path class="st0" d="M68.1,117.2c-3.2-0.4-7.7,1.6-9.4-1.1c-1.6-2.6-0.6-6.8-0.8-10.3c-0.1-1.8,0-3.5,0-5.3c0-4,0-8,0-12
				c0-3.6-0.7-7.1-5-7.2c-4.3,0-5.2,3.4-5.2,7c0,6.7,0,13.3,0,20c-0.2,19.8-1.1,17.9,18.6,18c0.4,0,0.9,0,1.3,0c3,0,5.4-1,5.6-4.3
				C73.4,118.5,71.1,117.5,68.1,117.2z"/>
		</g>
	</g>
	<text transform="matrix(1 0 0 1 325.8232 123.8916)" class="st1 st2 st3">GIPHY</text>
</g>
</svg>
